ffplay version N-81554-gf077ad6 Copyright (c) 2003-2016 the FFmpeg developers
  built with gcc 4.8 (Ubuntu 4.8.4-2ubuntu1~14.04.3)
  configuration: --prefix=/home/mininet/ffmpeg_build --pkg-config-flags=--static --extra-cflags=-I/home/mininet/ffmpeg_build/include --extra-ldflags=-L/home/mininet/ffmpeg_build/lib --bindir=/home/mininet/bin --enable-gpl --enable-libass --enable-libfdk-aac --enable-libfreetype --enable-libmp3lame --enable-libopus --enable-libtheora --enable-libvorbis --enable-libvpx --enable-libx264 --enable-libx265 --enable-nonfree
  libavutil      55. 29.100 / 55. 29.100
  libavcodec     57. 54.102 / 57. 54.102
  libavformat    57. 48.102 / 57. 48.102
  libavdevice    57.  0.102 / 57.  0.102
  libavfilter     6. 60.100 /  6. 60.100
  libswscale      4.  1.100 /  4.  1.100
  libswresample   2.  1.100 /  2.  1.100
  libpostproc    54.  0.100 / 54.  0.100
This is a modified version of software ffplay in order
to collect AppQoE metrics during video playing. 
These changes were made at: 
    Federal University of Rio Grande do Sul 
    Institute of Informatics. 
    nan    :  0.000 fd=   0 aq=    0KB vq=    0KB sq=    0B f=0/0       nan    :  0.000 fd=   0 aq=    0KB vq=    0KB sq=    0B f=0/0       nan    :  0.000 fd=   0 aq=    0KB vq=    0KB sq=    0B f=0/0       nan    :  0.000 fd=   0 aq=    0KB vq=    0KB sq=    0B f=0/0       nan    :  0.000 fd=   0 aq=    0KB vq=    0KB sq=    0B f=0/0       nan    :  0.000 fd=   0 aq=    0KB vq=    0KB sq=    0B f=0/0       nan    :  0.000 fd=   0 aq=    0KB vq=    0KB sq=    0B f=0/0       nan    :  0.000 fd=   0 aq=    0KB vq=    0KB sq=    0B f=0/0       nan    :  0.000 fd=   0 aq=    0KB vq=    0KB sq=    0B f=0/0       nan    :  0.000 fd=   0 aq=    0KB vq=    0KB sq=    0B f=0/0       nan    :  0.000 fd=   0 aq=    0KB vq=    0KB sq=    0B f=0/0       nan    :  0.000 fd=   0 aq=    0KB vq=    0KB sq=    0B f=0/0       nan    :  0.000 fd=   0 aq=    0KB vq=    0KB sq=    0B f=0/0       nan    :  0.000 fd=   0 aq=    0KB vq=    0KB sq=    0B f=0/0       nan    :  0.000 fd=   0 aq=    0KB vq=    0KB sq=    0B f=0/0       nan    :  0.000 fd=   0 aq=    0KB vq=    0KB sq=    0B f=0/0       nan    :  0.000 fd=   0 aq=    0KB vq=    0KB sq=    0B f=0/0       nan    :  0.000 fd=   0 aq=    0KB vq=    0KB sq=    0B f=0/0       nan    :  0.000 fd=   0 aq=    0KB vq=    0KB sq=    0B f=0/0       nan    :  0.000 fd=   0 aq=    0KB vq=    0KB sq=    0B f=0/0       nan    :  0.000 fd=   0 aq=    0KB vq=    0KB sq=    0B f=0/0       nan    :  0.000 fd=   0 aq=    0KB vq=    0KB sq=    0B f=0/0       nan    :  0.000 fd=   0 aq=    0KB vq=    0KB sq=    0B f=0/0       nan    :  0.000 fd=   0 aq=    0KB vq=    0KB sq=    0B f=0/0       nan    :  0.000 fd=   0 aq=    0KB vq=    0KB sq=    0B f=0/0       nan    :  0.000 fd=   0 aq=    0KB vq=    0KB sq=    0B f=0/0       nan    :  0.000 fd=   0 aq=    0KB vq=    0KB sq=    0B f=0/0       nan    :  0.000 fd=   0 aq=    0KB vq=    0KB sq=    0B f=0/0       nan    :  0.000 fd=   0 aq=    0KB vq=    0KB sq=    0B f=0/0       nan    :  0.000 fd=   0 aq=    0KB vq=    0KB sq=    0B f=0/0       nan    :  0.000 fd=   0 aq=    0KB vq=    0KB sq=    0B f=0/0       nan    :  0.000 fd=   0 aq=    0KB vq=    0KB sq=    0B f=0/0       nan    :  0.000 fd=   0 aq=    0KB vq=    0KB sq=    0B f=0/0       nan    :  0.000 fd=   0 aq=    0KB vq=    0KB sq=    0B f=0/0       nan    :  0.000 fd=   0 aq=    0KB vq=    0KB sq=    0B f=0/0       nan    :  0.000 fd=   0 aq=    0KB vq=    0KB sq=    0B f=0/0       nan    :  0.000 fd=   0 aq=    0KB vq=    0KB sq=    0B f=0/0       nan    :  0.000 fd=   0 aq=    0KB vq=    0KB sq=    0B f=0/0       nan    :  0.000 fd=   0 aq=    0KB vq=    0KB sq=    0B f=0/0   Input #0, matroska,webm, from 'http://10.0.0.4:8004/h2642250':
  Metadata:
    encoder         : Lavf57.48.102
  Duration: N/A, start: 0.000000, bitrate: N/A
    Stream #0:0: Video: h264 (High), yuv420p, 960x540 [SAR 1:1 DAR 16:9], 1k fps, 29.97 tbr, 1k tbn, 59.94 tbc (default)
    Stream #0:1: Audio: vorbis, 44100 Hz, stereo, fltp (default)
    nan M-V:    nan fd=   0 aq=    0KB vq=  360KB sq=    0B f=0/0       nan M-V:    nan fd=   0 aq=    0KB vq=  293KB sq=    0B f=0/0       nan M-V:    nan fd=   0 aq=    0KB vq=  261KB sq=    0B f=0/0       nan M-V:    nan fd=   0 aq=    0KB vq=  577KB sq=    0B f=0/0      0.10 M-V: -0.000 fd=   0 aq=    0KB vq=  659KB sq=    0B f=0/0      0.24 M-V: -0.000 fd=   0 aq=    0KB vq=  661KB sq=    0B f=0/0   UFRGS: Video initialized! Init_time=1002.082947 
   0.34 M-V:  0.213 fd=   6 aq=    0KB vq=  565KB sq=    0B f=0/0   UFRGS: Video stalled! No frames in queue. 
   0.59 M-V:  0.213 fd=   6 aq=    0KB vq=  658KB sq=    0B f=0/0   UFRGS: Recover from stall!. Stall_time=32.695000 Stall_count=1 
   0.73 M-V:  0.334 fd=  16 aq=    0KB vq=  565KB sq=    0B f=0/0      0.82 M-V:  0.103 fd=  17 aq=    0KB vq=  645KB sq=    0B f=0/0      1.10 M-V:  0.125 fd=  19 aq=    0KB vq=  718KB sq=    0B f=0/0      1.25 M-V:  0.279 fd=  27 aq=    0KB vq=  687KB sq=    0B f=0/0      1.41 M-V:  0.123 fd=  30 aq=    0KB vq=  663KB sq=    0B f=0/0      1.52 M-V:  0.151 fd=  34 aq=    0KB vq=  619KB sq=    0B f=0/0      1.73 M-V:  0.095 fd=  36 aq=    0KB vq=  774KB sq=    0B f=0/0      2.12 M-V:  0.205 fd=  42 aq=    0KB vq=  885KB sq=    0B f=0/0      3.11 M-V:  0.361 fd=  53 aq=    0KB vq= 1242KB sq=    0B f=0/0      3.42 M-V:  0.944 fd=  88 aq=    0KB vq= 1276KB sq=    0B f=0/0      3.74 M-V:  0.055 fd=  89 aq=    0KB vq= 1338KB sq=    0B f=0/0      4.72 M-V:  0.312 fd= 101 aq=    0KB vq= 1393KB sq=    0B f=0/0      6.99 M-V:  0.920 fd= 128 aq=    0KB vq= 1862KB sq=    0B f=0/0      8.12 M-V:  2.196 fd= 219 aq=    0KB vq= 1337KB sq=    0B f=0/0   XIO:  fatal IO error 11 (Resource temporarily unavailable) on X server "localhost:10.0"
      after 83 requests (83 known processed) with 0 events remaining.
